<mxfile host="Electron" agent="Mozilla/5.0 (Windows NT 10.0; Win64; x64) AppleWebKit/537.36 (KHTML, like Gecko) draw.io/25.0.2 Chrome/128.0.6613.186 Electron/32.2.5 Safari/537.36" version="25.0.2">
  <diagram name="Página-1" id="Tc3PCI4JLIHLV6xkgyNU">
    <mxGraphModel dx="1434" dy="836" grid="1" gridSize="10" guides="1" tooltips="1" connect="1" arrows="1" fold="1" page="1" pageScale="1" pageWidth="827" pageHeight="1169" math="0" shadow="0">
      <root>
        <mxCell id="0" />
        <mxCell id="1" parent="0" />
        <mxCell id="-PvJFC2BvxMRsc1tqfLz-9" value="" style="edgeStyle=orthogonalEdgeStyle;rounded=0;orthogonalLoop=1;jettySize=auto;html=1;" edge="1" parent="1" source="z5SRS-tbTI1OI5ZsA6Za-1" target="1QsZ_70u09qBCsEMQg7t-4">
          <mxGeometry relative="1" as="geometry" />
        </mxCell>
        <mxCell id="z5SRS-tbTI1OI5ZsA6Za-1" value="INÍCIO" style="ellipse;whiteSpace=wrap;html=1;" parent="1" vertex="1">
          <mxGeometry x="354" y="20" width="120" height="50" as="geometry" />
        </mxCell>
        <mxCell id="z5SRS-tbTI1OI5ZsA6Za-2" value="&lt;div style=&quot;&quot;&gt;1) Programa: Calcular o quadrado de 04 numeros:&lt;/div&gt;&lt;div style=&quot;&quot;&gt;•&amp;nbsp;&lt;span style=&quot;background-color: initial;&quot;&gt;Leia 4 (quatro) números inteiros&lt;/span&gt;&lt;/div&gt;&lt;div style=&quot;&quot;&gt;•&amp;nbsp;&lt;span style=&quot;background-color: initial;&quot;&gt;Calcule o quadrado para cada um&lt;/span&gt;&lt;/div&gt;&lt;div style=&quot;&quot;&gt;•&amp;nbsp;&lt;span style=&quot;background-color: initial;&quot;&gt;Some todos&lt;/span&gt;&lt;/div&gt;&lt;div style=&quot;&quot;&gt;•&amp;nbsp;&lt;span style=&quot;background-color: initial;&quot;&gt;Mostre o resultado&lt;/span&gt;&lt;/div&gt;&lt;div style=&quot;&quot;&gt;Ex: Considere as entradas 2,3,4,5 o resultado será 54&lt;/div&gt;" style="text;html=1;align=center;verticalAlign=middle;whiteSpace=wrap;rounded=0;" parent="1" vertex="1">
          <mxGeometry x="10" y="10" width="300" height="110" as="geometry" />
        </mxCell>
        <mxCell id="-PvJFC2BvxMRsc1tqfLz-10" value="" style="edgeStyle=orthogonalEdgeStyle;rounded=0;orthogonalLoop=1;jettySize=auto;html=1;" edge="1" parent="1" source="1QsZ_70u09qBCsEMQg7t-4" target="-PvJFC2BvxMRsc1tqfLz-2">
          <mxGeometry relative="1" as="geometry" />
        </mxCell>
        <mxCell id="1QsZ_70u09qBCsEMQg7t-4" value="N1" style="shape=parallelogram;html=1;strokeWidth=2;perimeter=parallelogramPerimeter;whiteSpace=wrap;rounded=1;arcSize=12;size=0.23;" parent="1" vertex="1">
          <mxGeometry x="314" y="120" width="200" height="50" as="geometry" />
        </mxCell>
        <mxCell id="-PvJFC2BvxMRsc1tqfLz-11" value="" style="edgeStyle=orthogonalEdgeStyle;rounded=0;orthogonalLoop=1;jettySize=auto;html=1;" edge="1" parent="1" source="-PvJFC2BvxMRsc1tqfLz-2" target="-PvJFC2BvxMRsc1tqfLz-3">
          <mxGeometry relative="1" as="geometry" />
        </mxCell>
        <mxCell id="-PvJFC2BvxMRsc1tqfLz-2" value="N2" style="shape=parallelogram;html=1;strokeWidth=2;perimeter=parallelogramPerimeter;whiteSpace=wrap;rounded=1;arcSize=12;size=0.23;" vertex="1" parent="1">
          <mxGeometry x="314" y="240" width="200" height="50" as="geometry" />
        </mxCell>
        <mxCell id="-PvJFC2BvxMRsc1tqfLz-12" value="" style="edgeStyle=orthogonalEdgeStyle;rounded=0;orthogonalLoop=1;jettySize=auto;html=1;" edge="1" parent="1" source="-PvJFC2BvxMRsc1tqfLz-3" target="-PvJFC2BvxMRsc1tqfLz-4">
          <mxGeometry relative="1" as="geometry" />
        </mxCell>
        <mxCell id="-PvJFC2BvxMRsc1tqfLz-3" value="N3" style="shape=parallelogram;html=1;strokeWidth=2;perimeter=parallelogramPerimeter;whiteSpace=wrap;rounded=1;arcSize=12;size=0.23;" vertex="1" parent="1">
          <mxGeometry x="314" y="360" width="200" height="50" as="geometry" />
        </mxCell>
        <mxCell id="-PvJFC2BvxMRsc1tqfLz-13" value="" style="edgeStyle=orthogonalEdgeStyle;rounded=0;orthogonalLoop=1;jettySize=auto;html=1;" edge="1" parent="1" source="-PvJFC2BvxMRsc1tqfLz-4" target="-PvJFC2BvxMRsc1tqfLz-5">
          <mxGeometry relative="1" as="geometry" />
        </mxCell>
        <mxCell id="-PvJFC2BvxMRsc1tqfLz-4" value="N4" style="shape=parallelogram;html=1;strokeWidth=2;perimeter=parallelogramPerimeter;whiteSpace=wrap;rounded=1;arcSize=12;size=0.23;" vertex="1" parent="1">
          <mxGeometry x="314" y="470" width="200" height="50" as="geometry" />
        </mxCell>
        <mxCell id="-PvJFC2BvxMRsc1tqfLz-14" value="" style="edgeStyle=orthogonalEdgeStyle;rounded=0;orthogonalLoop=1;jettySize=auto;html=1;" edge="1" parent="1" source="-PvJFC2BvxMRsc1tqfLz-5" target="-PvJFC2BvxMRsc1tqfLz-6">
          <mxGeometry relative="1" as="geometry" />
        </mxCell>
        <mxCell id="-PvJFC2BvxMRsc1tqfLz-5" value="Calcula o ² de N1 A N4" style="rounded=1;whiteSpace=wrap;html=1;" vertex="1" parent="1">
          <mxGeometry x="336" y="610" width="156" height="60" as="geometry" />
        </mxCell>
        <mxCell id="-PvJFC2BvxMRsc1tqfLz-15" value="" style="edgeStyle=orthogonalEdgeStyle;rounded=0;orthogonalLoop=1;jettySize=auto;html=1;" edge="1" parent="1" source="-PvJFC2BvxMRsc1tqfLz-6" target="-PvJFC2BvxMRsc1tqfLz-7">
          <mxGeometry relative="1" as="geometry" />
        </mxCell>
        <mxCell id="-PvJFC2BvxMRsc1tqfLz-6" value="Soma o resultado do ² de N1 A N4" style="rounded=1;whiteSpace=wrap;html=1;" vertex="1" parent="1">
          <mxGeometry x="307" y="750" width="214" height="60" as="geometry" />
        </mxCell>
        <mxCell id="-PvJFC2BvxMRsc1tqfLz-16" value="" style="edgeStyle=orthogonalEdgeStyle;rounded=0;orthogonalLoop=1;jettySize=auto;html=1;" edge="1" parent="1" source="-PvJFC2BvxMRsc1tqfLz-7" target="-PvJFC2BvxMRsc1tqfLz-8">
          <mxGeometry relative="1" as="geometry" />
        </mxCell>
        <mxCell id="-PvJFC2BvxMRsc1tqfLz-7" value="&lt;div&gt;&lt;span style=&quot;background-color: initial;&quot;&gt;Exibe a soma dos ² de N1 A N4&lt;/span&gt;&lt;br&gt;&lt;/div&gt;" style="strokeWidth=2;html=1;shape=mxgraph.flowchart.display;whiteSpace=wrap;" vertex="1" parent="1">
          <mxGeometry x="311" y="900" width="206" height="100" as="geometry" />
        </mxCell>
        <mxCell id="-PvJFC2BvxMRsc1tqfLz-8" value="FIM" style="ellipse;whiteSpace=wrap;html=1;" vertex="1" parent="1">
          <mxGeometry x="354" y="1080" width="120" height="50" as="geometry" />
        </mxCell>
      </root>
    </mxGraphModel>
  </diagram>
</mxfile>
